<svg height="512pt" viewBox="0 0 512 512" width="512pt" xmlns="http://www.w3.org/2000/svg"><path d="m210.226562 251.265625c-2.621093-7.859375-11.113281-12.105469-18.972656-9.488281-7.859375 2.621094-12.109375 11.117187-9.488281 18.976562s11.113281 12.105469 18.972656 9.484375c7.859375-2.617187 12.109375-11.113281 9.488281-18.972656zm0 0"/><path d="m330.230469 251.269531c-2.621094-7.859375-11.117188-12.105469-18.976563-9.488281-7.859375 2.621094-12.105468 11.117188-9.484375 18.972656 2.617188 7.859375 11.113281 12.109375 18.972657 9.488282 7.859374-2.617188 12.105468-11.113282 9.488281-18.972657zm0 0"/><path d="m512 256c0-141.480469-114.496094-256-256-256-141.480469 0-256 114.496094-256 256 0 75.796875 26.941406 142.292969 76 187.984375v53.015625c0 8.285156 6.714844 15 15 15h330c8.285156 0 15-6.714844 15-15v-53.015625c49.058594-45.691406 76-112.1875 76-187.984375zm-482 0c0-124.902344 101.078125-226 226-226 124.902344 0 226 101.078125 226 226 0 67.320312-23.542969 126.039062-66.410156 166h-57.210938c20.085938-19.136719 32.621094-46.132812 32.621094-76v-76.617188c16.648438 4.628907 35.335938-.738281 47.117188-15.046874 8.359374-10.152344 11.734374-23.246094 9.257812-35.925782-10.398438-53.1875-42.9375-100.019531-89.277344-128.484375-17.539062-10.773437-38.882812-11.125-57.09375-.941406-13.144531 7.355469-22.746094 19.328125-27.210937 33.1875-5.824219-.769531-11.761719-1.171875-17.792969-1.171875s-11.96875.402344-17.792969 1.175781c-4.464843-13.863281-14.066406-25.835937-27.210937-33.1875-18.210938-10.1875-39.554688-9.835937-57.09375.9375-46.339844 28.464844-78.878906 75.296875-89.277344 128.488281-2.476562 12.675782.894531 25.769532 9.257812 35.921876 11.785157 14.3125 30.472657 19.671874 47.117188 15.046874v76.617188c0 29.867188 12.535156 56.863281 32.621094 76h-57.210938c-42.867187-39.960938-66.410156-98.679688-66.410156-166zm93.945312-28.085938v.011719c-2.992187 14.046875-18.761718 17.226563-26.90625 7.339844-1.550781-1.882813-4-5.832031-2.972656-11.097656 8.792969-44.980469 36.324219-84.59375 75.539063-108.679688 8.269531-5.082031 18.019531-5.199219 26.746093-.316406 5.921876 3.308594 10.289063 8.339844 12.652344 14.273437-42.804687 15.945313-75.402344 53.015626-85.058594 98.46875zm27.054688 28.085938c0-58.089844 47.3125-105 105-105 57.519531 0 105 46.742188 105 105v90c0 41.355469-33.644531 75-75 75h-15v-32.578125c17.460938-6.195313 30-22.867187 30-42.421875 0-16.917969-17.242188-27.425781-45-27.425781s-45 10.507812-45 27.425781c0 19.554688 12.539062 36.226562 30 42.421875v32.578125h-15c-41.355469 0-75-33.644531-75-75zm237.058594-28.074219c-.003906-.007812-.003906-.015625-.007813-.019531-9.660156-45.449219-42.253906-82.515625-85.054687-98.460938 2.363281-5.933593 6.730468-10.964843 12.652344-14.273437 8.726562-4.882813 18.472656-4.765625 26.746093.316406 39.210938 24.085938 66.746094 63.699219 75.539063 108.679688 1.027344 5.265625-1.421875 9.214843-2.976563 11.097656-8.097656 9.839844-23.902343 6.757813-26.898437-7.339844zm-132.058594 133.074219c-6.746094 0-12.464844-4.476562-14.347656-10.613281 2.953125-.898438 7.855468-1.8125 14.347656-1.8125s11.394531.914062 14.347656 1.8125c-1.882812 6.136719-7.601562 10.613281-14.347656 10.613281zm150 121h-300v-30h300zm0 0"/></svg>